<?xml version="1.0" encoding="UTF-8"?>
<svg id="katman_2" data-name="katman 2" xmlns="http://www.w3.org/2000/svg" xmlns:xlink="http://www.w3.org/1999/xlink" viewBox="0 0 601.22 309.82">
  <defs>
    <style>
      .cls-1 {
        fill: #444142;
      }

      .cls-2 {
        fill: url(#linear-gradient);
      }
    </style>
    <linearGradient id="linear-gradient" x1="76.42" y1="0" x2="76.42" y2="309.82" gradientUnits="userSpaceOnUse">
      <stop offset="0" stop-color="#f9c845"/>
      <stop offset=".47" stop-color="#f39400"/>
      <stop offset="1" stop-color="#ec6a1c"/>
    </linearGradient>
  </defs>
  <g id="Layer_1" data-name="Layer 1">
    <g>
      <g>
        <path class="cls-1" d="M406.64,209.07h-10.13v9.76h10.13c1.24,0,2.29-.48,3.13-1.44,.84-.96,1.26-2.1,1.26-3.44s-.42-2.49-1.26-3.44c-.84-.96-1.88-1.44-3.13-1.44Z"/>
        <path class="cls-1" d="M408.36,202.05c.71-.82,1.06-1.78,1.06-2.87s-.35-2.09-1.05-2.92c-.7-.82-1.55-1.24-2.54-1.24h-9.31v8.26h9.31c.98,0,1.82-.41,2.53-1.24Z"/>
        <polygon class="cls-1" points="312.13 197.22 307.3 212.32 317.28 212.32 312.5 197.22 312.13 197.22"/>
        <path class="cls-1" d="M193.38,179.72v54.42h407.84v-54.42H193.38Zm19.41,36.12c2.42,2.47,5.35,3.71,8.79,3.71,1.94,0,3.78-.48,5.5-1.44,1.72-.96,3.19-2.21,4.4-3.75l4.64,4.5c-1.73,2.13-3.86,3.8-6.39,4.99-2.54,1.2-5.25,1.8-8.14,1.8-5.41,0-10.02-1.81-13.8-5.43-3.79-3.62-5.68-8.06-5.68-13.31s1.89-9.7,5.68-13.31c3.79-3.62,8.39-5.43,13.8-5.43,2.89,0,5.61,.6,8.14,1.8,2.54,1.2,4.67,2.86,6.39,4.99l-4.64,4.5c-1.21-1.52-2.68-2.77-4.4-3.73-1.72-.96-3.55-1.45-5.5-1.45-3.44,0-6.37,1.24-8.79,3.71s-3.63,5.45-3.63,8.92,1.21,6.44,3.63,8.92Zm108.51,9.01l-2.1-6.51h-13.82l-2.05,6.51h-7.3l12.6-35.85h7.37l12.6,35.85h-7.3Zm93.51-2.89c-2.19,1.93-4.92,2.89-8.17,2.89h-16.92v-35.85h16.1c3.07,0,5.61,.88,7.63,2.63,2.02,1.75,3.03,4.13,3.03,7.13,0,1.34-.27,2.51-.82,3.51-.54,1-1.09,1.71-1.63,2.12-.54,.41-1.23,.84-2.05,1.3,4.08,1.59,6.11,4.45,6.11,8.59,0,3.19-1.1,5.75-3.29,7.68Zm90.27,2.89h-24.67v-35.85h6.79v29.83h17.88v6.02Zm87.42-29.83h-19.53v8.85h16.24v6.02h-16.24v8.94h19.53v6.02h-26.33v-35.85h26.33v6.02Z"/>
      </g>
      <path class="cls-2" d="M83.36,287.51l-.39,.73-1.63,3c-24-13.02-44.25-32.21-58.54-55.5l.82-.5,2.8-1.72c13.91,22.66,33.6,41.33,56.95,53.99Zm-23.48-44.79c-18.09-19.57-29.57-43.79-33.19-70.02l-4.2,.58c3.74,27.1,15.59,52.11,34.28,72.32l3.12-2.88Zm42.44,53.4c-2-.75-3.99-1.52-5.96-2.35l-.1,.23-1.56,3.68c18.45,7.82,38.01,11.88,58.14,12.15v-6.42c-1.41,.04-2.82,.11-4.24,.11-16.17,0-31.71-2.62-46.28-7.39ZM25.18,78.35C42.78,48.63,69.87,25.91,101.92,13.83c1.97-.74,3.96-1.46,5.97-2.12l-1.33-4.03C70.93,19.42,40.73,43.75,21.52,76.18l.77,.46,2.89,1.71Zm60.69-6.73l-2.71-3.27c-25.87,21.5-40.7,53.04-40.7,86.56,0,24.5,7.77,47.81,22.47,67.4l3.4-2.55c-14.15-18.85-21.62-41.27-21.62-64.85,0-32.25,14.28-62.6,39.17-83.29Zm-8.53,192.14c22.19,15.87,48.26,24.38,75.5,24.81v-4.25c-26.35-.43-51.57-8.67-73.03-24.02l-2.47,3.45ZM54.71,73.04l-3.28-2.69c-19.47,23.8-30.19,53.83-30.19,84.55h4.25c0-29.75,10.38-58.82,29.23-81.87Zm-36.76,19.09l-3.34-1.54-.51-.24C5.83,108.31,1.18,127.36,.21,147.08c-.13,2.6-.21,5.2-.21,7.82s.09,5.46,.23,8.17c.1,1.78,.24,3.54,.4,5.3,.06,.72,.12,1.44,.19,2.16,1.87,18.82,7.1,36.93,15.71,53.98l.62-.31,3.17-1.6c-10.67-21.13-16.08-43.91-16.08-67.7,0-21.89,4.61-43.02,13.7-62.78ZM104.84,58.96c14.73-7.73,31.29-11.92,48.01-12.26v-4.25c-17.4,.33-34.64,4.69-49.98,12.74l1.97,3.76Zm-33.44-2.9c22.79-19.31,51.64-30.11,81.45-30.61v-4.25c-30.81,.49-60.63,11.66-84.19,31.61l2.75,3.24ZM115.89,4.92l1.07,4.11c11.67-3.04,23.73-4.62,35.89-4.79V0c-12.52,.17-24.94,1.79-36.96,4.92Zm11.87,259.17c8.17,2.04,16.6,3.1,25.08,3.26v-4.25c-8.14-.16-16.22-1.18-24.05-3.14l-1.03,4.12Zm25.08-194V239.71c-45.91-1.14-82.79-38.63-82.79-84.81s36.88-83.67,82.79-84.81Zm-37.82,185.44c-13.45-5.36-25.54-13.26-35.93-23.47l-2.98,3.03c10.79,10.61,23.35,18.82,37.34,24.39l1.57-3.94Z"/>
      <path class="cls-1" d="M193.38,156.51l5.79-9.12c9.3,5.49,19.02,8.23,29.16,8.23,7.71,0,13.77-1.52,18.18-4.56,4.4-3.04,6.6-7.16,6.6-12.35,0-3.86-1.06-6.95-3.19-9.27-2.13-2.32-4.91-3.99-8.35-5.01-3.44-1.01-7.26-1.82-11.46-2.41-4.21-.59-8.39-1.32-12.54-2.19-4.15-.86-7.96-2.06-11.42-3.6-3.46-1.53-6.26-3.99-8.38-7.38-2.13-3.39-3.19-7.6-3.19-12.65,0-7.42,3.3-13.21,9.91-17.36,6.6-4.15,14.55-6.23,23.85-6.23,12.76,0,23.91,2.89,33.46,8.68l-5.04,8.98c-8.51-4.85-17.98-7.27-28.41-7.27-6.68,0-12.04,1.21-16.1,3.64-4.05,2.42-6.08,5.51-6.08,9.27,0,4.25,1.45,7.54,4.34,9.87,2.89,2.33,6.51,3.78,10.87,4.38,4.35,.6,9.04,1.37,14.06,2.34,5.02,.96,9.71,2.12,14.06,3.45,4.35,1.34,7.96,3.97,10.83,7.9,2.87,3.93,4.3,9.09,4.3,15.47,0,8.11-3.29,14.58-9.87,19.4-6.58,4.82-15.38,7.23-26.41,7.23-13.45,0-25.1-3.14-34.94-9.42Z"/>
      <path class="cls-1" d="M357.66,152.24c-9.27,9.12-20.44,13.69-33.5,13.69s-24.22-4.56-33.5-13.69c-9.27-9.13-13.91-20.12-13.91-32.98s4.66-23.83,13.99-32.9c9.32-9.08,20.46-13.61,33.42-13.61s24.22,4.54,33.5,13.61c9.27,9.08,13.91,20.04,13.91,32.9s-4.64,23.85-13.91,32.98Zm-33.5,3.37c10.04,0,18.52-3.55,25.45-10.64,6.92-7.1,10.39-15.66,10.39-25.71s-3.46-18.57-10.39-25.6c-6.92-7.02-15.41-10.53-25.45-10.53s-18.28,3.54-25.3,10.61c-7.02,7.07-10.53,15.58-10.53,25.52s3.49,18.61,10.46,25.71c6.97,7.1,15.43,10.64,25.37,10.64Z"/>
      <path class="cls-1" d="M386.71,163.33V49.38h11.2v113.95h-11.2Z"/>
      <path class="cls-1" d="M507.19,119.27c0,1.83-.17,3.61-.52,5.34h-82.12c1.33,8.8,5.33,16.17,11.98,22.11,6.65,5.93,14.5,8.9,23.55,8.9,6.78,0,12.97-1.73,18.58-5.19,5.61-3.46,10-8.06,13.17-13.8l8.46,5.86c-4.25,6.97-9.94,12.62-17.06,16.95-7.12,4.33-14.84,6.49-23.15,6.49-12.96,0-24.02-4.56-33.2-13.69-9.18-9.13-13.76-20.12-13.76-32.98s4.59-23.83,13.76-32.9c9.18-9.08,20.24-13.61,33.2-13.61s24.05,4.54,33.27,13.61c9.23,9.08,13.83,20.04,13.83,32.9Zm-82.64-5.19h71.22c-1.34-8.8-5.37-16.16-12.1-22.07-6.73-5.91-14.6-8.87-23.63-8.87s-16.87,2.96-23.52,8.87c-6.65,5.91-10.65,13.27-11.98,22.07Z"/>
      <path class="cls-1" d="M522.32,163.33V75.35h11.2v14.91h.37c2.13-4.55,6-8.61,11.61-12.17,5.61-3.56,11.65-5.34,18.14-5.34,10.83,0,19.31,3.22,25.44,9.64,6.14,6.43,9.2,14.91,9.2,25.45v55.49h-11.27v-55.49c0-7.42-2.23-13.39-6.68-17.92-4.45-4.53-10.33-6.79-17.62-6.79s-13.99,2.59-20.07,7.75c-6.08,5.17-9.13,11.24-9.13,18.21v54.23h-11.2Z"/>
    </g>
  </g>
</svg>